<svg xmlns="http://www.w3.org/2000/svg" xmlns:xlink="http://www.w3.org/1999/xlink" width="1000" height="1000" viewBox="0 0 1000 1000" fill="none">
<rect x="0" y="0" width="0" height="0" fill="rgba(249, 249, 249, 1)" />
<path     fill="#00376E"  d="M0 1000L1000 1000L1000 0L0 0L0 1000Z">
</path>
<rect x="50" y="50" width="900" height="900"   fill="#0060C0" >
</rect>
<g >
<path     fill="#FFFFFF"  d="M494.25 649.5L421.25 649.5L273.75 472L249.75 496L249.75 649.5L193.25 649.5L193.25 263L249.75 263L249.75 423.5L404.75 263L482.75 263L313.75 432L494.25 649.5ZM717.25 649.5L660.25 649.5L660.25 316.5L544.75 316.5L544.75 263L832.25 263L832.25 316.5L717.25 316.5L717.25 649.5Z">
</path>
</g>
<g >
<path     fill="#FFFFFF"  d="M227.65 781.6L216.25 781.6L216.25 715L193.15 715L193.15 704.3L250.65 704.3L250.65 715L227.65 715L227.65 781.6ZM322.95 783Q312.45 783 304.65 778.1Q296.85 773.2 292.6 764.15Q288.35 755.1 288.35 743Q288.35 730.8 292.6 721.75Q296.85 712.7 304.65 707.8Q312.45 702.9 322.95 702.9Q333.55 702.9 341.35 707.8Q349.15 712.7 353.35 721.75Q357.55 730.8 357.55 743Q357.55 755.1 353.35 764.15Q349.15 773.2 341.3 778.1Q333.45 783 322.95 783ZM322.95 772.4Q329.85 772.4 335.05 768.8Q340.25 765.2 343.1 758.55Q345.95 751.9 345.95 743Q345.95 734.1 343.1 727.45Q340.25 720.8 335.05 717.2Q329.85 713.6 322.95 713.6Q315.95 713.6 310.75 717.2Q305.55 720.8 302.75 727.45Q299.95 734.1 299.95 743Q299.95 751.9 302.75 758.55Q305.55 765.2 310.75 768.8Q315.95 772.4 322.95 772.4ZM432.75 783Q422.25 783 414.45 778.1Q406.65 773.2 402.4 764.15Q398.15 755.1 398.15 743Q398.15 730.8 402.4 721.75Q406.65 712.7 414.45 707.8Q422.25 702.9 432.75 702.9Q443.35 702.9 451.15 707.8Q458.95 712.7 463.15 721.75Q467.35 730.8 467.35 743Q467.35 755.1 463.15 764.15Q458.95 773.2 451.1 778.1Q443.25 783 432.75 783ZM432.75 772.4Q439.65 772.4 444.85 768.8Q450.05 765.2 452.9 758.55Q455.75 751.9 455.75 743Q455.75 734.1 452.9 727.45Q450.05 720.8 444.85 717.2Q439.65 713.6 432.75 713.6Q425.75 713.6 420.55 717.2Q415.35 720.8 412.55 727.45Q409.75 734.1 409.75 743Q409.75 751.9 412.55 758.55Q415.35 765.2 420.55 768.8Q425.75 772.4 432.75 772.4ZM521.45 704.3L521.45 771.1L558.85 771.1L558.85 781.6L510.15 781.6L510.15 704.3L521.45 704.3ZM658.95 781.6L644.35 781.6L614.85 746.1L610.05 750.9L610.05 781.6L598.75 781.6L598.75 704.3L610.05 704.3L610.05 736.4L641.05 704.3L656.65 704.3L622.85 738.1L658.95 781.6ZM709.45 704.3L709.45 781.6L698.15 781.6L698.15 704.3L709.45 704.3ZM783.85 781.6L772.45 781.6L772.45 715L749.35 715L749.35 704.3L806.85 704.3L806.85 715L783.85 715L783.85 781.6Z">
</path>
</g>
</svg>
